<svg width="24" height="24" viewBox="0 0 24 24" fill="none" xmlns="http://www.w3.org/2000/svg">
<path d="M23.5168 20.4747L17.8523 14.6396C17.4461 14.221 16.9384 14.0534 16.7184 14.2674C16.4977 14.4799 15.9897 14.3127 15.5835 13.8941L15.5025 13.8103C18.0377 10.4855 17.7917 5.7251 14.7472 2.6894C11.4245 -0.623763 6.03705 -0.623763 2.71472 2.6894C-0.608031 6.00257 -0.608031 11.3737 2.71472 14.6869C5.81105 17.7747 10.698 17.9815 14.0393 15.3146L14.0749 15.3516C14.4803 15.7702 14.6313 16.2817 14.4099 16.4946C14.1896 16.7075 14.3395 17.2193 14.7461 17.6372L20.4076 23.4746C20.8138 23.8921 21.4831 23.9045 21.9034 23.4992L23.4923 21.9662C23.9109 21.5618 23.9223 20.8949 23.5168 20.4747ZM12.8775 12.8224C10.5909 15.1027 6.86998 15.1027 4.58375 12.8232C2.29717 10.5432 2.29752 6.83255 4.58375 4.55298C6.86998 2.27299 10.5909 2.27334 12.8767 4.55333C15.1637 6.83296 15.1637 10.5428 12.8775 12.8224Z" fill="#1F52B6"/>
</svg>
