<?xml version="1.0" encoding="utf-8"?>
<!-- Generator: Adobe Illustrator 22.1.0, SVG Export Plug-In . SVG Version: 6.00 Build 0)  -->
<svg version="1.1" id="Layer_1" xmlns="http://www.w3.org/2000/svg" xmlns:xlink="http://www.w3.org/1999/xlink" x="0px" y="0px"
	 viewBox="0 0 930.8 267.4" style="enable-background:new 0 0 930.8 267.4;" xml:space="preserve">
<style type="text/css">
	.st0{fill:#FFFFFF;}
	.st1{fill:#1DB100;}
</style>
<g>
	<g>
		<path class="st0" d="M85.7,93c11.4-0.1,22.7,2.2,33.1,6.6c20.7,8.7,37.2,25.2,45.9,45.9c8.9,21.3,8.9,45.2,0,66.5
			c-8.8,20.6-25.3,37-45.9,45.7c-10.5,4.5-21.8,6.7-33.1,6.7c-11.5,0.1-22.8-2.2-33.3-6.7c-20.5-8.8-36.9-25.2-45.7-45.7
			c-4.5-10.5-6.8-21.9-6.7-33.3V11.4c-0.1-3.1,1.2-6.1,3.4-8.2c2.1-2.1,5-3.3,8-3.2c2.9,0,5.8,1.1,7.8,3.2c2.2,2.2,3.3,5.1,3.2,8.2
			v109.7c6.7-7.3,14.5-13.3,23.2-17.9c6.2-3.3,12.7-5.9,19.5-7.6C71.9,93.9,78.8,93,85.7,93 M85.8,242c8.4,0,16.8-1.6,24.6-5
			c15.2-6.4,27.3-18.4,33.7-33.5c6.6-15.8,6.6-33.6,0-49.3c-6.4-15.2-18.5-27.4-33.7-33.7c-15.7-6.6-33.4-6.6-49.2,0
			c-15.2,6.4-27.4,18.5-33.7,33.7c-6.6,15.8-6.6,33.6,0,49.3c6.4,15.1,18.5,27.2,33.7,33.5C69,240.3,77.3,242,85.8,242"/>
		<path class="st0" d="M264.8,264.4c-11.5,0.1-22.8-2.2-33.3-6.7c-10.2-4.3-19.4-10.5-27.3-18.3c-7.9-7.7-14.1-16.9-18.5-27.1
			c-8.9-21.3-8.9-45.2,0-66.5c8.7-20.6,25.1-37.1,45.7-45.9c21.3-8.9,45.2-8.9,66.5,0c20.7,8.7,37.2,25.2,45.9,45.9
			c8.9,21.3,8.9,45.2,0,66.5c-4.3,10.1-10.6,19.3-18.5,27c-7.9,7.8-17.2,14-27.4,18.3C287.4,262.2,276.2,264.5,264.8,264.4
			 M264.8,115.8c-8.4,0-16.8,1.6-24.6,4.9c-15.2,6.4-27.4,18.5-33.7,33.7c-6.6,15.7-6.6,33.4,0,49.2c6.4,15.2,18.5,27.4,33.7,33.7
			c15.7,6.6,33.4,6.6,49.1,0c15.3-6.4,27.4-18.5,33.8-33.8c6.6-15.7,6.6-33.4,0-49.1c-6.4-15.2-18.5-27.4-33.7-33.7
			C281.6,117.4,273.2,115.8,264.8,115.8"/>
		<path class="st0" d="M443.5,93c24.1,0.1,47,10.3,63.2,28.2V11.1c0-2.9,1.1-5.8,3.2-7.8c2.2-2.2,5.2-3.3,8.2-3.2
			c6.1,0,11,4.9,11,11v167.7c0.1,11.5-2.2,22.8-6.7,33.3c-8.8,20.6-25.3,37-45.9,45.7c-21.3,8.9-45.2,8.9-66.5,0
			c-20.5-8.8-36.9-25.2-45.7-45.7c-8.9-21.3-8.9-45.2,0-66.5c8.8-20.7,25.2-37.1,45.8-45.9C420.7,95.1,432.1,92.8,443.5,93
			 M506.8,178.7c0-8.4-1.6-16.8-5-24.6c-6.4-15.2-18.5-27.4-33.7-33.7c-15.7-6.6-33.4-6.6-49.1,0c-15.3,6.4-27.4,18.5-33.8,33.7
			c-6.6,15.8-6.6,33.6,0,49.3c6.4,15.1,18.5,27.2,33.7,33.5c15.7,6.6,33.4,6.6,49.1,0c15.2-6.4,27.3-18.4,33.7-33.5
			C505.1,195.6,506.8,187.2,506.8,178.7"/>
		<path class="st0" d="M622.9,264.4c-11.5,0.1-22.8-2.2-33.3-6.7c-10.1-4.3-19.4-10.5-27.2-18.3c-7.9-7.7-14.1-16.9-18.5-27.1
			c-8.9-21.3-8.9-45.2,0-66.5c8.7-20.6,25.1-37.1,45.7-45.9c21.3-8.9,45.2-8.9,66.5,0c20.7,8.7,37.2,25.2,45.9,45.9
			c8.9,21.3,8.9,45.2,0,66.5c-4.3,10.1-10.6,19.3-18.5,27c-7.9,7.8-17.2,14-27.4,18.3C645.6,262.2,634.3,264.5,622.9,264.4
			 M622.9,115.8c-8.4,0-16.8,1.6-24.6,4.9c-15.2,6.4-27.4,18.5-33.7,33.7c-6.6,15.7-6.6,33.4,0,49.2c6.4,15.2,18.5,27.4,33.7,33.7
			c15.7,6.6,33.4,6.6,49.2,0c15.2-6.4,27.3-18.5,33.7-33.8c6.6-15.7,6.6-33.4,0-49.1c-6.4-15.2-18.5-27.4-33.7-33.7
			C639.7,117.4,631.3,115.8,622.9,115.8"/>
		<path class="st1" d="M850.8,254.1c-6.1,3.3-12.5,5.9-19.2,7.6c-6.8,1.8-13.8,2.7-20.8,2.7c-11.5,0.1-22.8-2.2-33.3-6.7
			c-20.5-8.8-36.9-25.2-45.7-45.7c-8.9-21.3-8.9-45.2,0-66.5c8.7-20.6,25.1-37.1,45.7-45.9c21.3-8.9,45.2-8.9,66.5,0
			c20.7,8.7,37.2,25.2,45.9,45.9c4.5,10.5,6.7,21.8,6.7,33.1V253c0,3-1.1,5.9-3.2,8c-2.1,2.3-5.1,3.5-8.2,3.4c-3,0-5.8-1.2-7.8-3.4
			c-2.1-2.1-3.3-5-3.2-8v-16.7C867.4,243.5,859.5,249.6,850.8,254.1 M747.5,178.7c0,8.4,1.7,16.8,5,24.6
			c6.3,15.2,18.4,27.4,33.7,33.7c15.7,6.6,33.4,6.6,49.1,0c15.2-6.4,27.4-18.5,33.7-33.7c6.6-15.7,6.6-33.4,0-49.1
			c-6.4-15.2-18.5-27.4-33.7-33.7c-15.7-6.6-33.4-6.6-49.1,0c-15.2,6.4-27.4,18.5-33.7,33.7C749.1,161.9,747.4,170.3,747.5,178.7"/>
		<path class="st1" d="M919.4,78.1c-6.1,0-11-4.9-11-11v-4.2c0-3,1.1-5.9,3.2-8c2-2.2,4.8-3.5,7.8-3.4c6.2,0.2,11.3,5.2,11.4,11.4
			v4.2c0,3-1.2,5.8-3.4,7.8C925.3,77,922.4,78.2,919.4,78.1 M919.4,264.5c-2.9,0-5.8-1.1-7.8-3.2c-2.2-2.2-3.3-5.1-3.2-8.2V104.4
			c-0.1-3.1,1.1-6,3.2-8.2c2-2.1,4.9-3.3,7.8-3.2c3,0,5.9,1.1,8,3.2c2.3,2.1,3.5,5.1,3.4,8.2V253c0.1,3.1-1.2,6.1-3.4,8.2
			C925.3,263.3,922.4,264.5,919.4,264.5"/>
		<path class="st1" d="M731.8,234.5c7.5,7.5,7.5,19.7,0,27.3c-7.5,7.5-19.7,7.5-27.3,0c-7.5-7.5-7.5-19.7,0-27.3c0,0,0,0,0,0
			C712.1,227,724.3,227,731.8,234.5"/>
	</g>
</g>
</svg>
